<svg width="47" height="45" viewBox="0 0 47 45" fill="none" xmlns="http://www.w3.org/2000/svg">
<path d="M2.35 0H44.65C45.2733 0 45.871 0.263392 46.3117 0.732233C46.7524 1.20107 47 1.83696 47 2.5V42.5C47 43.163 46.7524 43.7989 46.3117 44.2678C45.871 44.7366 45.2733 45 44.65 45H2.35C1.72674 45 1.12901 44.7366 0.688299 44.2678C0.247588 43.7989 0 43.163 0 42.5V2.5C0 1.83696 0.247588 1.20107 0.688299 0.732233C1.12901 0.263392 1.72674 0 2.35 0ZM23.641 21.7075L8.5728 8.095L5.52955 11.905L23.6715 28.2925L41.4869 11.8925L38.4131 8.11L23.641 21.7075Z" fill="black"/>
</svg>
